<?xml version="1.0" encoding="UTF-8"?>
<svg width="120" height="32" viewBox="0 0 120 32" fill="none" xmlns="http://www.w3.org/2000/svg">
  <path d="M0 8.4V31.2H4.8V8.4H0Z" fill="#8B0000"/>
  <path d="M24 8.4L16.8 31.2H11.2L4 8.4H9.2L14 24.8L18.8 8.4H24Z" fill="#8B0000"/>
  <path d="M44 8.4V12.4H35.2V18H42.4V22H35.2V31.2H30.4V8.4H44Z" fill="#8B0000"/>
  <path d="M64 8.4V12.4H55.2V18H62.4V22H55.2V31.2H50.4V8.4H64Z" fill="#8B0000"/>
  <path d="M84 8.4L76.8 31.2H71.2L64 8.4H69.2L74 24.8L78.8 8.4H84Z" fill="#8B0000"/>
  <path d="M104 8.4V31.2H99.2V8.4H104Z" fill="#8B0000"/>
  <path d="M120 8.4V31.2H115.2V8.4H120Z" fill="#8B0000"/>
</svg> 